<svg width="38" height="32" viewBox="0 0 38 32" fill="none" xmlns="http://www.w3.org/2000/svg">
<path d="M31.35 28H6.65C6.1275 28 5.7 28.45 5.7 29V31C5.7 31.55 6.1275 32 6.65 32H31.35C31.8725 32 32.3 31.55 32.3 31V29C32.3 28.45 31.8725 28 31.35 28ZM35.15 8C33.5766 8 32.3 9.34375 32.3 11C32.3 11.4438 32.395 11.8562 32.5613 12.2375L28.2625 14.95C27.3481 15.525 26.1666 15.2 25.6381 14.225L20.7991 5.3125C21.4344 4.7625 21.85 3.9375 21.85 3C21.85 1.34375 20.5734 0 19 0C17.4266 0 16.15 1.34375 16.15 3C16.15 3.9375 16.5656 4.7625 17.2009 5.3125L12.3619 14.225C11.8334 15.2 10.6459 15.525 9.7375 14.95L5.44469 12.2375C5.605 11.8625 5.70594 11.4438 5.70594 11C5.70594 9.34375 4.42937 8 2.85594 8C1.2825 8 0 9.34375 0 11C0 12.6562 1.27656 14 2.85 14C3.00437 14 3.15875 13.975 3.30719 13.95L7.6 26H30.4L34.6928 13.95C34.8412 13.975 34.9956 14 35.15 14C36.7234 14 38 12.6562 38 11C38 9.34375 36.7234 8 35.15 8Z" fill="#FFCD46"/>
</svg>
