<svg width="597" height="160" viewBox="0 0 597 160" fill="none" xmlns="http://www.w3.org/2000/svg">
<path d="M365.35 28H340.65C340.128 28 339.7 28.45 339.7 29V31C339.7 31.55 340.128 32 340.65 32H365.35C365.872 32 366.3 31.55 366.3 31V29C366.3 28.45 365.872 28 365.35 28ZM369.15 8C367.577 8 366.3 9.34375 366.3 11C366.3 11.4438 366.395 11.8562 366.561 12.2375L362.262 14.95C361.348 15.525 360.167 15.2 359.638 14.225L354.799 5.3125C355.434 4.7625 355.85 3.9375 355.85 3C355.85 1.34375 354.573 0 353 0C351.427 0 350.15 1.34375 350.15 3C350.15 3.9375 350.566 4.7625 351.201 5.3125L346.362 14.225C345.833 15.2 344.646 15.525 343.738 14.95L339.445 12.2375C339.605 11.8625 339.706 11.4438 339.706 11C339.706 9.34375 338.429 8 336.856 8C335.282 8 334 9.34375 334 11C334 12.6562 335.277 14 336.85 14C337.004 14 337.159 13.975 337.307 13.95L341.6 26H364.4L368.693 13.95C368.841 13.975 368.996 14 369.15 14C370.723 14 372 12.6562 372 11C372 9.34375 370.723 8 369.15 8Z" fill="#FFCD46"/>
<path d="M34.9272 98L33.6392 90.18L39.5272 88.8V43.352L33.0872 42.708V34.428H58.5712C62.9259 34.428 66.6365 35.164 69.7032 36.636C72.7699 38.108 75.1005 40.1013 76.6952 42.616C78.3512 45.1307 79.1792 47.952 79.1792 51.08C79.1792 53.9013 78.5965 56.3547 77.4312 58.44C76.2659 60.464 74.8552 62.0587 73.1992 63.224C71.6045 64.3893 70.1632 65.1253 68.8752 65.432C71.5125 66.1067 73.7819 67.088 75.6832 68.376C77.5845 69.664 79.0565 71.3507 80.0992 73.436C81.2032 75.46 81.7552 77.9133 81.7552 80.796C81.7552 86.5613 79.8539 90.8853 76.0512 93.768C72.3099 96.5893 67.4032 98 61.3312 98H34.9272ZM51.5792 88.34H58.3872C60.3499 88.34 62.1285 88.0947 63.7232 87.604C65.3792 87.052 66.6979 86.1627 67.6792 84.936C68.6605 83.648 69.1512 81.9 69.1512 79.692C69.1512 76.6253 68.0779 74.3867 65.9312 72.976C63.8459 71.504 60.8405 70.768 56.9152 70.768H51.5792V88.34ZM51.5792 61.108H57.0072C59.1539 61.108 60.9325 60.74 62.3432 60.004C63.7539 59.268 64.7965 58.256 65.4712 56.968C66.2072 55.6187 66.5752 54.116 66.5752 52.46C66.5752 49.3933 65.4712 47.2467 63.2632 46.02C61.1165 44.732 58.6019 44.088 55.7192 44.088H51.5792V61.108ZM105.832 98.368C102.949 98.368 100.435 97.8773 98.2879 96.896C96.1412 95.9147 94.4852 94.412 93.3199 92.388C92.1545 90.3027 91.5719 87.696 91.5719 84.568V61.384H86.8799L85.8679 55.22L99.4839 52.736L102.704 56.232V82.452C102.704 83.6173 102.857 84.66 103.164 85.58C103.471 86.4387 103.9 87.1747 104.452 87.788C105.004 88.4013 105.648 88.8613 106.384 89.168C107.181 89.4133 108.04 89.536 108.96 89.536C110.616 89.536 112.149 89.0453 113.56 88.064C114.971 87.0827 115.921 85.9787 116.412 84.752V61.108L112.272 61.384L111.168 55.22L124.324 52.736L127.544 56.232V88.34C127.544 89.1373 127.697 89.6893 128.004 89.996C128.311 90.2413 128.648 90.364 129.016 90.364C129.323 90.364 129.599 90.3333 129.844 90.272C130.089 90.2107 130.243 90.18 130.304 90.18L132.052 95.332C131.684 95.7613 130.856 96.3747 129.568 97.172C128.341 97.9693 126.777 98.368 124.876 98.368C123.281 98.368 121.809 98.0307 120.46 97.356C119.172 96.6813 118.16 95.5467 117.424 93.952C116.013 95.4853 114.235 96.62 112.088 97.356C109.941 98.0307 107.856 98.368 105.832 98.368ZM138.314 98L136.934 92.112L142.454 90.64V61.108L137.762 61.476L136.75 55.22L149.538 52.828L152.666 57.612C153.892 56.0787 155.364 54.9133 157.082 54.116C158.799 53.2573 160.455 52.828 162.05 52.828C164.748 52.828 167.171 53.472 169.318 54.76C171.526 55.9867 173.059 58.0107 173.918 60.832L162.786 66.628L160.026 62.028C159.29 62.028 158.4 62.3347 157.358 62.948C156.376 63.5613 155.487 64.5733 154.69 65.984C153.954 67.3947 153.586 69.296 153.586 71.688V88.892L164.718 92.112L164.81 98H138.314ZM193.397 123.024C189.779 123.024 186.62 122.411 183.921 121.184C181.284 120.019 179.229 118.393 177.757 116.308C176.347 114.223 175.641 111.892 175.641 109.316C175.641 106.433 176.316 104.011 177.665 102.048C179.076 100.147 180.763 98.6133 182.725 97.448C182.051 96.712 181.499 95.8533 181.069 94.872C180.701 93.8293 180.517 92.6333 180.517 91.284C180.517 89.6893 180.824 88.2787 181.437 87.052C182.112 85.764 182.94 84.66 183.921 83.74C181.836 82.3907 180.088 80.612 178.677 78.404C177.328 76.1347 176.653 73.4053 176.653 70.216C176.653 66.4747 177.543 63.316 179.321 60.74C181.161 58.164 183.461 56.2013 186.221 54.852C189.043 53.5027 191.956 52.828 194.961 52.828C197.108 52.828 199.193 53.1653 201.217 53.84C203.303 54.5147 205.173 55.496 206.829 56.784L216.857 51.724L218.973 52L219.985 61.108L211.429 62.12C212.043 63.2853 212.503 64.5427 212.809 65.892C213.177 67.2413 213.361 68.6827 213.361 70.216C213.361 73.896 212.441 76.9627 210.601 79.416C208.823 81.8693 206.523 83.7093 203.701 84.936C200.941 86.1627 198.028 86.776 194.961 86.776C194.532 86.776 194.103 86.776 193.673 86.776C193.305 86.776 192.937 86.7453 192.569 86.684L190.913 89.168L191.097 90.456L200.481 92.388C203.732 93.0627 206.431 94.0133 208.577 95.24C210.724 96.4053 212.319 97.816 213.361 99.472C214.404 101.189 214.925 103.183 214.925 105.452C214.925 109.132 213.944 112.291 211.981 114.928C210.08 117.565 207.504 119.559 204.253 120.908C201.003 122.319 197.384 123.024 193.397 123.024ZM195.881 111.984C197.599 111.984 199.224 111.769 200.757 111.34C202.291 110.972 203.548 110.389 204.529 109.592C205.572 108.856 206.093 107.997 206.093 107.016C206.093 106.096 205.572 105.36 204.529 104.808C203.487 104.317 202.107 103.888 200.389 103.52C198.733 103.213 196.924 102.876 194.961 102.508C192.999 102.201 191.097 101.741 189.257 101.128C187.908 101.925 186.957 102.784 186.405 103.704C185.915 104.685 185.669 105.636 185.669 106.556C185.669 107.353 185.976 108.151 186.589 108.948C187.203 109.807 188.245 110.512 189.717 111.064C191.189 111.677 193.244 111.984 195.881 111.984ZM194.961 78.128C197.415 78.128 199.193 77.3 200.297 75.644C201.401 73.9267 201.953 71.964 201.953 69.756C201.953 67.6093 201.401 65.708 200.297 64.052C199.193 62.3347 197.415 61.476 194.961 61.476C192.569 61.476 190.821 62.3347 189.717 64.052C188.613 65.708 188.061 67.6093 188.061 69.756C188.061 71.964 188.613 73.9267 189.717 75.644C190.821 77.3 192.569 78.128 194.961 78.128ZM243.531 98.368C240.035 98.368 236.692 97.5707 233.503 95.976C230.313 94.32 227.707 91.836 225.683 88.524C223.659 85.212 222.647 81.0413 222.647 76.012C222.647 70.6147 223.659 66.2293 225.683 62.856C227.768 59.4213 230.375 56.9067 233.503 55.312C236.692 53.656 239.912 52.828 243.163 52.828C245.739 52.828 248.223 53.288 250.615 54.208C253.007 55.0667 254.969 56.4467 256.503 58.348C258.097 60.188 258.895 62.5493 258.895 65.432C258.895 68.008 258.343 70.216 257.239 72.056C256.196 73.896 254.724 75.3987 252.823 76.564C250.983 77.7293 248.867 78.588 246.475 79.14C244.083 79.692 241.568 79.9373 238.931 79.876L234.239 79.784C234.607 82.544 235.619 84.8747 237.275 86.776C238.931 88.6773 241.629 89.628 245.371 89.628C248.192 89.628 250.461 89.1067 252.179 88.064C253.896 86.96 255.307 85.8867 256.411 84.844L258.527 92.848C257.975 93.584 256.993 94.3813 255.583 95.24C254.172 96.0987 252.424 96.8347 250.339 97.448C248.315 98.0613 246.045 98.368 243.531 98.368ZM234.331 72.056L237.367 72.148C238.532 72.2093 239.697 72.148 240.863 71.964C242.089 71.7187 243.193 71.3507 244.175 70.86C245.217 70.3693 246.045 69.7253 246.659 68.928C247.272 68.0693 247.579 67.0267 247.579 65.8C247.579 64.3893 247.18 63.3467 246.383 62.672C245.585 61.936 244.573 61.568 243.347 61.568C241.875 61.568 240.464 62.0587 239.115 63.04C237.827 63.96 236.753 65.2173 235.895 66.812C235.036 68.4067 234.515 70.1547 234.331 72.056ZM265.712 98L264.332 92.112L269.852 90.64V61.108L265.16 61.476L264.148 55.22L276.936 52.828L280.064 57.612C281.291 56.0787 282.763 54.9133 284.48 54.116C286.197 53.2573 287.853 52.828 289.448 52.828C292.147 52.828 294.569 53.472 296.716 54.76C298.924 55.9867 300.457 58.0107 301.316 60.832L290.184 66.628L287.424 62.028C286.688 62.028 285.799 62.3347 284.756 62.948C283.775 63.5613 282.885 64.5733 282.088 65.984C281.352 67.3947 280.984 69.296 280.984 71.688V88.892L292.116 92.112L292.208 98H265.712ZM353.293 98.368C348.939 98.368 345.075 97.6013 341.701 96.068C338.389 94.4733 335.599 92.2347 333.329 89.352C331.06 86.4693 329.343 83.0653 328.177 79.14C327.012 75.2147 326.429 70.9213 326.429 66.26C326.429 61.5373 327.012 57.244 328.177 53.38C329.343 49.4547 331.06 46.0813 333.329 43.26C335.599 40.3773 338.389 38.1693 341.701 36.636C345.075 35.0413 348.939 34.244 353.293 34.244C357.648 34.244 361.481 35.0413 364.793 36.636C368.105 38.1693 370.896 40.3773 373.165 43.26C375.435 46.0813 377.152 49.4547 378.317 53.38C379.483 57.244 380.065 61.5373 380.065 66.26C380.065 70.9213 379.483 75.2147 378.317 79.14C377.152 83.0653 375.435 86.4693 373.165 89.352C370.896 92.2347 368.105 94.4733 364.793 96.068C361.481 97.6013 357.648 98.368 353.293 98.368ZM363.137 118.884L346.945 104.624L352.005 99.38L371.141 106.372L371.785 109.868L363.137 118.884ZM353.293 88.708C355.44 88.708 357.372 88.156 359.089 87.052C360.868 85.8867 362.371 84.292 363.597 82.268C364.824 80.244 365.775 77.8827 366.449 75.184C367.124 72.4853 367.461 69.572 367.461 66.444C367.461 63.316 367.124 60.4027 366.449 57.704C365.775 54.944 364.824 52.552 363.597 50.528C362.371 48.4427 360.868 46.8173 359.089 45.652C357.372 44.4867 355.44 43.904 353.293 43.904C351.085 43.904 349.092 44.4867 347.313 45.652C345.596 46.8173 344.124 48.4427 342.897 50.528C341.671 52.552 340.72 54.944 340.045 57.704C339.371 60.4027 339.033 63.316 339.033 66.444C339.033 69.572 339.371 72.4853 340.045 75.184C340.72 77.8827 341.671 80.244 342.897 82.268C344.124 84.292 345.596 85.8867 347.313 87.052C349.092 88.156 351.085 88.708 353.293 88.708ZM404.562 98.368C401.68 98.368 399.165 97.8773 397.018 96.896C394.872 95.9147 393.216 94.412 392.05 92.388C390.885 90.3027 390.302 87.696 390.302 84.568V61.384H385.61L384.598 55.22L398.214 52.736L401.434 56.232V82.452C401.434 83.6173 401.588 84.66 401.894 85.58C402.201 86.4387 402.63 87.1747 403.182 87.788C403.734 88.4013 404.378 88.8613 405.114 89.168C405.912 89.4133 406.77 89.536 407.69 89.536C409.346 89.536 410.88 89.0453 412.29 88.064C413.701 87.0827 414.652 85.9787 415.142 84.752V61.108L411.002 61.384L409.898 55.22L423.054 52.736L426.274 56.232V88.34C426.274 89.1373 426.428 89.6893 426.734 89.996C427.041 90.2413 427.378 90.364 427.746 90.364C428.053 90.364 428.329 90.3333 428.574 90.272C428.82 90.2107 428.973 90.18 429.034 90.18L430.782 95.332C430.414 95.7613 429.586 96.3747 428.298 97.172C427.072 97.9693 425.508 98.368 423.606 98.368C422.012 98.368 420.54 98.0307 419.19 97.356C417.902 96.6813 416.89 95.5467 416.154 93.952C414.744 95.4853 412.965 96.62 410.818 97.356C408.672 98.0307 406.586 98.368 404.562 98.368ZM456.191 98.368C452.695 98.368 449.352 97.5707 446.163 95.976C442.974 94.32 440.367 91.836 438.343 88.524C436.319 85.212 435.307 81.0413 435.307 76.012C435.307 70.6147 436.319 66.2293 438.343 62.856C440.428 59.4213 443.035 56.9067 446.163 55.312C449.352 53.656 452.572 52.828 455.823 52.828C458.399 52.828 460.883 53.288 463.275 54.208C465.667 55.0667 467.63 56.4467 469.163 58.348C470.758 60.188 471.555 62.5493 471.555 65.432C471.555 68.008 471.003 70.216 469.899 72.056C468.856 73.896 467.384 75.3987 465.483 76.564C463.643 77.7293 461.527 78.588 459.135 79.14C456.743 79.692 454.228 79.9373 451.591 79.876L446.899 79.784C447.267 82.544 448.279 84.8747 449.935 86.776C451.591 88.6773 454.29 89.628 458.031 89.628C460.852 89.628 463.122 89.1067 464.839 88.064C466.556 86.96 467.967 85.8867 469.071 84.844L471.187 92.848C470.635 93.584 469.654 94.3813 468.243 95.24C466.832 96.0987 465.084 96.8347 462.999 97.448C460.975 98.0613 458.706 98.368 456.191 98.368ZM446.991 72.056L450.027 72.148C451.192 72.2093 452.358 72.148 453.523 71.964C454.75 71.7187 455.854 71.3507 456.835 70.86C457.878 70.3693 458.706 69.7253 459.319 68.928C459.932 68.0693 460.239 67.0267 460.239 65.8C460.239 64.3893 459.84 63.3467 459.043 62.672C458.246 61.936 457.234 61.568 456.007 61.568C454.535 61.568 453.124 62.0587 451.775 63.04C450.487 63.96 449.414 65.2173 448.555 66.812C447.696 68.4067 447.175 70.1547 446.991 72.056ZM497.968 98.368C494.472 98.368 491.13 97.5707 487.94 95.976C484.751 94.32 482.144 91.836 480.12 88.524C478.096 85.212 477.084 81.0413 477.084 76.012C477.084 70.6147 478.096 66.2293 480.12 62.856C482.206 59.4213 484.812 56.9067 487.94 55.312C491.13 53.656 494.35 52.828 497.6 52.828C500.176 52.828 502.66 53.288 505.052 54.208C507.444 55.0667 509.407 56.4467 510.94 58.348C512.535 60.188 513.332 62.5493 513.332 65.432C513.332 68.008 512.78 70.216 511.676 72.056C510.634 73.896 509.162 75.3987 507.26 76.564C505.42 77.7293 503.304 78.588 500.912 79.14C498.52 79.692 496.006 79.9373 493.368 79.876L488.676 79.784C489.044 82.544 490.056 84.8747 491.712 86.776C493.368 88.6773 496.067 89.628 499.808 89.628C502.63 89.628 504.899 89.1067 506.616 88.064C508.334 86.96 509.744 85.8867 510.848 84.844L512.964 92.848C512.412 93.584 511.431 94.3813 510.02 95.24C508.61 96.0987 506.862 96.8347 504.776 97.448C502.752 98.0613 500.483 98.368 497.968 98.368ZM488.768 72.056L491.804 72.148C492.97 72.2093 494.135 72.148 495.3 71.964C496.527 71.7187 497.631 71.3507 498.612 70.86C499.655 70.3693 500.483 69.7253 501.096 68.928C501.71 68.0693 502.016 67.0267 502.016 65.8C502.016 64.3893 501.618 63.3467 500.82 62.672C500.023 61.936 499.011 61.568 497.784 61.568C496.312 61.568 494.902 62.0587 493.552 63.04C492.264 63.96 491.191 65.2173 490.332 66.812C489.474 68.4067 488.952 70.1547 488.768 72.056ZM520.058 98L519.046 92.112L524.198 90.916V61.384H519.506L518.494 55.128L532.11 52.736L535.33 56.14C536.495 55.2813 538.059 54.5147 540.022 53.84C541.984 53.1653 543.978 52.828 546.002 52.828C548.578 52.828 550.939 53.2573 553.086 54.116C555.232 54.9747 556.95 56.2933 558.238 58.072C559.526 59.8507 560.17 62.1507 560.17 64.972V91.284L565.23 92.112L565.138 98H544.438V92.112L549.038 91.1V67.548C549.038 65.5853 548.516 64.144 547.474 63.224C546.492 62.304 545.112 61.844 543.334 61.844C541.555 61.844 539.868 62.304 538.274 63.224C536.74 64.0827 535.759 64.7573 535.33 65.248V91.1L540.574 92.204L540.482 98H520.058ZM259.533 155.18C257.493 155.18 255.558 154.85 253.728 154.19C251.898 153.53 250.278 152.555 248.868 151.265C247.488 149.975 246.393 148.385 245.583 146.495C244.803 144.575 244.413 142.37 244.413 139.88C244.413 137.33 244.818 135.065 245.628 133.085C246.468 131.105 247.593 129.44 249.003 128.09C250.413 126.71 252.003 125.675 253.773 124.985C255.543 124.265 257.388 123.905 259.308 123.905C261.138 123.905 262.668 124.04 263.898 124.31C265.128 124.55 265.998 124.745 266.508 124.895L267.408 133.85H263.943L261.513 128.495C261.303 128.465 261.078 128.435 260.838 128.405C260.598 128.375 260.208 128.36 259.668 128.36C257.898 128.36 256.278 128.825 254.808 129.755C253.368 130.655 252.213 131.93 251.343 133.58C250.503 135.2 250.053 137.12 249.993 139.34C250.023 141.53 250.428 143.48 251.208 145.19C252.018 146.9 253.143 148.25 254.583 149.24C256.053 150.23 257.763 150.725 259.713 150.725C260.913 150.725 262.113 150.515 263.313 150.095C264.543 149.675 265.578 149.06 266.418 148.25L268.173 152.03C267.633 152.63 266.898 153.17 265.968 153.65C265.068 154.1 264.048 154.475 262.908 154.775C261.798 155.045 260.673 155.18 259.533 155.18ZM270.739 155L270.289 152.3L272.899 151.67V125.75H270.514L270.019 122.825L276.364 121.925L277.894 123.5V151.58L280.819 152.3V155H270.739ZM283.67 155L283.22 152.255L285.74 151.67V136.955L283.445 137L282.95 134.03L289.295 132.95L290.78 134.525V151.76L293.3 152.255V155H283.67ZM288.17 131.06C287.42 131.06 286.775 130.79 286.235 130.25C285.725 129.71 285.47 129.08 285.47 128.36C285.47 127.61 285.725 126.98 286.235 126.47C286.775 125.93 287.42 125.66 288.17 125.66C288.92 125.66 289.55 125.93 290.06 126.47C290.6 126.98 290.87 127.61 290.87 128.36C290.87 129.08 290.6 129.71 290.06 130.25C289.55 130.79 288.92 131.06 288.17 131.06ZM305.736 155.18C303.966 155.18 302.301 154.775 300.741 153.965C299.211 153.125 297.966 151.895 297.006 150.275C296.076 148.655 295.611 146.66 295.611 144.29C295.611 141.74 296.091 139.64 297.051 137.99C298.011 136.31 299.256 135.065 300.786 134.255C302.316 133.415 303.906 132.995 305.556 132.995C306.816 132.995 308.016 133.22 309.156 133.67C310.296 134.09 311.226 134.765 311.946 135.695C312.696 136.595 313.071 137.735 313.071 139.115C313.071 140.435 312.786 141.545 312.216 142.445C311.676 143.345 310.911 144.08 309.921 144.65C308.961 145.22 307.866 145.64 306.636 145.91C305.436 146.15 304.176 146.255 302.856 146.225L300.876 146.18C301.056 147.59 301.581 148.775 302.451 149.735C303.321 150.695 304.686 151.175 306.546 151.175C307.866 151.175 308.946 150.935 309.786 150.455C310.656 149.975 311.361 149.48 311.901 148.97L312.936 152.615C312.606 153.005 312.096 153.395 311.406 153.785C310.716 154.175 309.891 154.505 308.931 154.775C307.971 155.045 306.906 155.18 305.736 155.18ZM300.876 142.58L302.271 142.625C302.871 142.655 303.501 142.625 304.161 142.535C304.821 142.415 305.436 142.235 306.006 141.995C306.606 141.755 307.071 141.41 307.401 140.96C307.761 140.51 307.941 139.94 307.941 139.25C307.941 138.5 307.716 137.945 307.266 137.585C306.816 137.195 306.261 137 305.601 137C304.791 137 304.041 137.255 303.351 137.765C302.661 138.275 302.091 138.95 301.641 139.79C301.221 140.63 300.966 141.56 300.876 142.58ZM316.453 155L316.003 152.255L318.523 151.67V136.955H316.228L315.733 134.03L322.033 132.95L323.518 134.615C324.148 134.195 324.943 133.82 325.903 133.49C326.863 133.16 327.838 132.995 328.828 132.995C330.088 132.995 331.228 133.22 332.248 133.67C333.298 134.09 334.123 134.75 334.723 135.65C335.353 136.52 335.668 137.645 335.668 139.025V151.805L338.188 152.255L338.143 155H328.333L328.288 152.255L330.628 151.76V140.15C330.628 139.1 330.358 138.335 329.818 137.855C329.308 137.345 328.588 137.09 327.658 137.09C326.788 137.09 325.948 137.3 325.138 137.72C324.358 138.14 323.833 138.5 323.563 138.8V151.76L326.173 152.3L326.128 155H316.453ZM348.317 155.18C347.327 155.18 346.427 155 345.617 154.64C344.807 154.25 344.147 153.605 343.637 152.705C343.127 151.805 342.872 150.575 342.872 149.015L342.962 136.82H339.542L338.867 133.445L339.182 132.995H343.007L343.097 125.435L347.552 124.445L347.957 125.165L347.912 132.995H352.502C352.652 132.995 352.727 133.085 352.727 133.265V136.82H347.912V149.015C347.912 149.915 348.032 150.485 348.272 150.725C348.542 150.965 348.917 151.085 349.397 151.085C349.937 151.085 350.492 150.92 351.062 150.59C351.662 150.26 352.097 150.005 352.367 149.825L353.447 153.245C353.057 153.665 352.382 154.1 351.422 154.55C350.492 154.97 349.457 155.18 348.317 155.18Z" fill="white"/>
</svg>
