<svg width="151" height="160" viewBox="0 0 151 160" fill="none" xmlns="http://www.w3.org/2000/svg">
<path d="M115.35 28H90.65C90.1275 28 89.7 28.45 89.7 29V31C89.7 31.55 90.1275 32 90.65 32H115.35C115.872 32 116.3 31.55 116.3 31V29C116.3 28.45 115.872 28 115.35 28ZM119.15 8C117.577 8 116.3 9.34375 116.3 11C116.3 11.4437 116.395 11.8563 116.561 12.2375L112.262 14.95C111.348 15.525 110.167 15.2 109.638 14.225L104.799 5.3125C105.434 4.7625 105.85 3.9375 105.85 3C105.85 1.34375 104.573 0 103 0C101.427 0 100.15 1.34375 100.15 3C100.15 3.9375 100.566 4.7625 101.201 5.3125L96.3619 14.225C95.8334 15.2 94.6459 15.525 93.7375 14.95L89.4447 12.2375C89.605 11.8625 89.7059 11.4437 89.7059 11C89.7059 9.34375 88.4294 8 86.8559 8C85.2825 8 84 9.34375 84 11C84 12.6562 85.2766 14 86.85 14C87.0044 14 87.1588 13.975 87.3072 13.95L91.6 26H114.4L118.693 13.95C118.841 13.975 118.996 14 119.15 14C120.723 14 122 12.6562 122 11C122 9.34375 120.723 8 119.15 8Z" fill="#FFCD46"/>
<path d="M23.0151 98L21.7271 90.18L27.6151 88.8V43.352L21.1751 42.708V34.428H46.6591C51.0137 34.428 54.7244 35.164 57.7911 36.636C60.8577 38.108 63.1884 40.1013 64.7831 42.616C66.4391 45.1307 67.2671 47.952 67.2671 51.08C67.2671 53.9013 66.6844 56.3547 65.5191 58.44C64.3537 60.464 62.9431 62.0587 61.2871 63.224C59.6924 64.3893 58.2511 65.1253 56.9631 65.432C59.6004 66.1067 61.8697 67.088 63.7711 68.376C65.6724 69.664 67.1444 71.3507 68.1871 73.436C69.2911 75.46 69.8431 77.9133 69.8431 80.796C69.8431 86.5613 67.9417 90.8853 64.1391 93.768C60.3977 96.5893 55.4911 98 49.4191 98H23.0151ZM39.6671 88.34H46.4751C48.4377 88.34 50.2164 88.0947 51.8111 87.604C53.4671 87.052 54.7857 86.1627 55.7671 84.936C56.7484 83.648 57.2391 81.9 57.2391 79.692C57.2391 76.6253 56.1657 74.3867 54.0191 72.976C51.9337 71.504 48.9284 70.768 45.0031 70.768H39.6671V88.34ZM39.6671 61.108H45.0951C47.2417 61.108 49.0204 60.74 50.4311 60.004C51.8417 59.268 52.8844 58.256 53.5591 56.968C54.2951 55.6187 54.6631 54.116 54.6631 52.46C54.6631 49.3933 53.5591 47.2467 51.3511 46.02C49.2044 44.732 46.6897 44.088 43.8071 44.088H39.6671V61.108ZM102.936 98.368C98.5811 98.368 94.7171 97.6013 91.3438 96.068C88.0318 94.4733 85.2411 92.2347 82.9718 89.352C80.7024 86.4693 78.9851 83.0653 77.8198 79.14C76.6544 75.2147 76.0718 70.9213 76.0718 66.26C76.0718 61.5373 76.6544 57.244 77.8198 53.38C78.9851 49.4547 80.7024 46.0813 82.9718 43.26C85.2411 40.3773 88.0318 38.1693 91.3438 36.636C94.7171 35.0413 98.5811 34.244 102.936 34.244C107.29 34.244 111.124 35.0413 114.436 36.636C117.748 38.1693 120.538 40.3773 122.808 43.26C125.077 46.0813 126.794 49.4547 127.96 53.38C129.125 57.244 129.708 61.5373 129.708 66.26C129.708 70.9213 129.125 75.2147 127.96 79.14C126.794 83.0653 125.077 86.4693 122.808 89.352C120.538 92.2347 117.748 94.4733 114.436 96.068C111.124 97.6013 107.29 98.368 102.936 98.368ZM112.78 118.884L96.5878 104.624L101.648 99.38L120.784 106.372L121.428 109.868L112.78 118.884ZM102.936 88.708C105.082 88.708 107.014 88.156 108.732 87.052C110.51 85.8867 112.013 84.292 113.24 82.268C114.466 80.244 115.417 77.8827 116.092 75.184C116.766 72.4853 117.104 69.572 117.104 66.444C117.104 63.316 116.766 60.4027 116.092 57.704C115.417 54.944 114.466 52.552 113.24 50.528C112.013 48.4427 110.51 46.8173 108.732 45.652C107.014 44.4867 105.082 43.904 102.936 43.904C100.728 43.904 98.7344 44.4867 96.9558 45.652C95.2384 46.8173 93.7664 48.4427 92.5398 50.528C91.3131 52.552 90.3624 54.944 89.6878 57.704C89.0131 60.4027 88.6758 63.316 88.6758 66.444C88.6758 69.572 89.0131 72.4853 89.6878 75.184C90.3624 77.8827 91.3131 80.244 92.5398 82.268C93.7664 84.292 95.2384 85.8867 96.9558 87.052C98.7344 88.156 100.728 88.708 102.936 88.708ZM36.533 155.18C34.493 155.18 32.558 154.85 30.728 154.19C28.898 153.53 27.278 152.555 25.868 151.265C24.488 149.975 23.393 148.385 22.583 146.495C21.803 144.575 21.413 142.37 21.413 139.88C21.413 137.33 21.818 135.065 22.628 133.085C23.468 131.105 24.593 129.44 26.003 128.09C27.413 126.71 29.003 125.675 30.773 124.985C32.543 124.265 34.388 123.905 36.308 123.905C38.138 123.905 39.668 124.04 40.898 124.31C42.128 124.55 42.998 124.745 43.508 124.895L44.408 133.85H40.943L38.513 128.495C38.303 128.465 38.078 128.435 37.838 128.405C37.598 128.375 37.208 128.36 36.668 128.36C34.898 128.36 33.278 128.825 31.808 129.755C30.368 130.655 29.213 131.93 28.343 133.58C27.503 135.2 27.053 137.12 26.993 139.34C27.023 141.53 27.428 143.48 28.208 145.19C29.018 146.9 30.143 148.25 31.583 149.24C33.053 150.23 34.763 150.725 36.713 150.725C37.913 150.725 39.113 150.515 40.313 150.095C41.543 149.675 42.578 149.06 43.418 148.25L45.173 152.03C44.633 152.63 43.898 153.17 42.968 153.65C42.068 154.1 41.048 154.475 39.908 154.775C38.798 155.045 37.673 155.18 36.533 155.18ZM47.7394 155L47.2894 152.3L49.8994 151.67V125.75H47.5144L47.0194 122.825L53.3644 121.925L54.8944 123.5V151.58L57.8194 152.3V155H47.7394ZM60.6699 155L60.2199 152.255L62.7399 151.67V136.955L60.4449 137L59.9499 134.03L66.2949 132.95L67.7799 134.525V151.76L70.2999 152.255V155H60.6699ZM65.1699 131.06C64.4199 131.06 63.7749 130.79 63.2349 130.25C62.7249 129.71 62.4699 129.08 62.4699 128.36C62.4699 127.61 62.7249 126.98 63.2349 126.47C63.7749 125.93 64.4199 125.66 65.1699 125.66C65.9199 125.66 66.5499 125.93 67.0599 126.47C67.5999 126.98 67.8699 127.61 67.8699 128.36C67.8699 129.08 67.5999 129.71 67.0599 130.25C66.5499 130.79 65.9199 131.06 65.1699 131.06ZM82.7364 155.18C80.9664 155.18 79.3014 154.775 77.7414 153.965C76.2114 153.125 74.9664 151.895 74.0064 150.275C73.0764 148.655 72.6114 146.66 72.6114 144.29C72.6114 141.74 73.0914 139.64 74.0514 137.99C75.0114 136.31 76.2564 135.065 77.7864 134.255C79.3164 133.415 80.9064 132.995 82.5564 132.995C83.8164 132.995 85.0164 133.22 86.1564 133.67C87.2964 134.09 88.2264 134.765 88.9464 135.695C89.6964 136.595 90.0714 137.735 90.0714 139.115C90.0714 140.435 89.7864 141.545 89.2164 142.445C88.6764 143.345 87.9114 144.08 86.9214 144.65C85.9614 145.22 84.8664 145.64 83.6364 145.91C82.4364 146.15 81.1764 146.255 79.8564 146.225L77.8764 146.18C78.0564 147.59 78.5814 148.775 79.4514 149.735C80.3214 150.695 81.6864 151.175 83.5464 151.175C84.8664 151.175 85.9464 150.935 86.7864 150.455C87.6564 149.975 88.3614 149.48 88.9014 148.97L89.9364 152.615C89.6064 153.005 89.0964 153.395 88.4064 153.785C87.7164 154.175 86.8914 154.505 85.9314 154.775C84.9714 155.045 83.9064 155.18 82.7364 155.18ZM77.8764 142.58L79.2714 142.625C79.8714 142.655 80.5014 142.625 81.1614 142.535C81.8214 142.415 82.4364 142.235 83.0064 141.995C83.6064 141.755 84.0714 141.41 84.4014 140.96C84.7614 140.51 84.9414 139.94 84.9414 139.25C84.9414 138.5 84.7164 137.945 84.2664 137.585C83.8164 137.195 83.2614 137 82.6014 137C81.7914 137 81.0414 137.255 80.3514 137.765C79.6614 138.275 79.0914 138.95 78.6414 139.79C78.2214 140.63 77.9664 141.56 77.8764 142.58ZM93.4531 155L93.0031 152.255L95.5231 151.67V136.955H93.2281L92.7331 134.03L99.0331 132.95L100.518 134.615C101.148 134.195 101.943 133.82 102.903 133.49C103.863 133.16 104.838 132.995 105.828 132.995C107.088 132.995 108.228 133.22 109.248 133.67C110.298 134.09 111.123 134.75 111.723 135.65C112.353 136.52 112.668 137.645 112.668 139.025V151.805L115.188 152.255L115.143 155H105.333L105.288 152.255L107.628 151.76V140.15C107.628 139.1 107.358 138.335 106.818 137.855C106.308 137.345 105.588 137.09 104.658 137.09C103.788 137.09 102.948 137.3 102.138 137.72C101.358 138.14 100.833 138.5 100.563 138.8V151.76L103.173 152.3L103.128 155H93.4531ZM125.317 155.18C124.327 155.18 123.427 155 122.617 154.64C121.807 154.25 121.147 153.605 120.637 152.705C120.127 151.805 119.872 150.575 119.872 149.015L119.962 136.82H116.542L115.867 133.445L116.182 132.995H120.007L120.097 125.435L124.552 124.445L124.957 125.165L124.912 132.995H129.502C129.652 132.995 129.727 133.085 129.727 133.265V136.82H124.912V149.015C124.912 149.915 125.032 150.485 125.272 150.725C125.542 150.965 125.917 151.085 126.397 151.085C126.937 151.085 127.492 150.92 128.062 150.59C128.662 150.26 129.097 150.005 129.367 149.825L130.447 153.245C130.057 153.665 129.382 154.1 128.422 154.55C127.492 154.97 126.457 155.18 125.317 155.18Z" fill="white"/>
</svg>
